# xmcd CD database file
#
# Track frame offsets:
#	150
#	12097
#	32820
#	53922
#	65587
#	76687
#	90607
#	104265
#	113522
#	130572
#
# Disc length: 2009 seconds
#
# Revision: 0
# Processed by: cddbd v1.4PL0 Copyright (c) Steve Scherf et al.
# Submitted via: NeoAudio 9.9.9
#
DISCID=6e07d70a
DTITLE=Maci Miller - A Very Good Night
DYEAR=2001
DGENRE=Jazz
TTITLE0=Champagne
TTITLE1=Red Hot Dirty Dame
TTITLE2=My Sad Song
TTITLE3=I've Got You
TTITLE4=Love Ain't Part of That Game
TTITLE5=Milk and Honey
TTITLE6=A Very Good Night
TTITLE7=Got Nothin' Baby
TTITLE8=Inseparable
TTITLE9=Bye-Bye Baby
EXTD=YEAR: 2001
EXTT0=
EXTT1=
EXTT2=
EXTT3=
EXTT4=
EXTT5=
EXTT6=
EXTT7=
EXTT8=
EXTT9=
PLAYORDER=
